#!OML:ASF X:\für Bonn\!DataBase\2005_08_11_Bastian_Final\c3d\Bastian.ASF
:FULLY-SPECIFIED
:DEGREES
198
root -0.719851 9.31713 24.5736 -743.745 -196.879 -723.651
lowerback 77.2347 -13.2702 -5.75435
upperback 18.7043 -3.19725 4.46121
thorax 1.01528 2.7746 8.63285
lowerneck -26.2363 2.86264 -2.2243
upperneck -10.9058 6.45208 -8.30976
head 0.983697 4.08011 -1.79723
rclavicle -8.5875e-014 -3.97569e-015
rhumerus 11.9776 -0.458945 -61.4317
rradius 20.6004
rwrist -15.534
rhand -23.7692 0.651555
rfingers 7.12502
rthumb 2.7003 -29.3111
lclavicle -8.5875e-014 -3.97569e-015
lhumerus 24.988 -22.5115 20.0954
lradius 52.4135
lwrist 21.7729
lhand -10.3208 -12.1359
lfingers 7.12502
lthumb 15.6748 17.2492
rfemur -66.2209 -9.5385 21.4561
rtibia 122.927
rfoot -27.9374 3.74495
rtoes 0.774041
lfemur -64.917 20.2079 -22.8238
ltibia 120.68
lfoot -28.8161 -8.03826
ltoes -9.00655
199
root -0.702797 9.15335 24.5812 -744.436 -196.915 -723.725
lowerback 77.4461 -13.1998 -5.93736
upperback 18.7956 -3.12929 4.39457
thorax 1.14377 2.85152 8.60925
lowerneck -26.0706 2.88521 -2.20213
upperneck -10.8454 6.45612 -8.4282
head 0.986225 4.07142 -1.84206
rclavicle -1.27222e-014 -7.95139e-016
rhumerus 12.0183 -1.1206 -61.7164
rradius 19.9485
rwrist -15.3499
rhand -23.4688 0.0805046
rfingers 7.12502
rthumb 2.9904 -29.8783
lclavicle -1.27222e-014 -7.95139e-016
lhumerus 24.9424 -22.5132 19.493
lradius 52.8478
lwrist 21.5997
lhand -10.0992 -12.1765
lfingers 7.12502
lthumb 15.8882 17.1917
rfemur -66.6218 -9.80825 21.6282
rtibia 124.133
rfoot -28.0815 3.72891
rtoes 1.19388
lfemur -65.2922 20.8548 -22.6757
ltibia 121.906
lfoot -29.0276 -8.23934
ltoes -9.31445
200
root -0.684341 8.99071 24.589 -745.128 -196.918 -723.834
lowerback 77.6089 -13.139 -6.11521
upperback 18.8839 -3.08026 4.31725
thorax 1.26544 2.9205 8.57778
lowerneck -25.8168 2.89735 -2.15866
upperneck -10.8623 6.43402 -8.57218
head 0.948839 4.05568 -1.90462
rclavicle -2.22639e-014 -1.22054e-013
rhumerus 12.029 -1.85719 -62.0498
rradius 19.3017
rwrist -15.0945
rhand -23.0235 -0.543452
rfingers 7.12502
rthumb 3.42042 -30.4958
lclavicle -2.22639e-014 -1.22054e-013
lhumerus 24.9009 -22.5377 18.8751
lradius 53.3151
lwrist 21.4501
lhand -9.8654 -12.2429
lfingers 7.12502
lthumb 16.1133 17.1072
rfemur -67.0599 -10.1535 21.7865
rtibia 125.336
rfoot -28.2207 3.65021
rtoes 1.37059
lfemur -65.6787 21.4925 -22.5612
ltibia 123.097
lfoot -29.1901 -8.46288
ltoes -9.45586
201
root -0.665983 8.82889 24.5971 -745.845 -196.93 -723.945
lowerback 77.7749 -13.0783 -6.30205
upperback 18.9773 -3.03795 4.21837
thorax 1.39499 2.9908 8.52758
lowerneck -25.5918 2.91799 -2.07314
upperneck -10.8377 6.41265 -8.73343
head 0.93314 4.03417 -1.97896
rclavicle -2.70347e-014 7.11649e-014
rhumerus 12.0554 -2.62806 -62.4501
rradius 18.6565
rwrist -14.8128
rhand -22.4344 -1.19299
rfingers 7.12502
rthumb 3.98931 -31.1354
lclavicle -2.70347e-014 7.11649e-014
lhumerus 24.8937 -22.5439 18.2367
lradius 53.7043
lwrist 21.3213
lhand -9.63426 -12.3693
lfingers 7.12502
lthumb 16.3358 16.9627
rfemur -67.4575 -10.4752 21.9416
rtibia 126.508
rfoot -28.3374 3.60161
rtoes 1.76924
lfemur -66.0412 22.2156 -22.4442
ltibia 124.267
lfoot -29.346 -8.66862
ltoes -9.69345
202
root -0.646305 8.6692 24.6039 -746.58 -196.943 -724.059
lowerback 77.9452 -13.0164 -6.47691
upperback 19.0564 -2.99137 4.11476
thorax 1.50778 3.06549 8.46459
lowerneck -25.3398 2.93266 -2.02455
upperneck -10.821 6.39144 -8.8448
head 0.906528 4.01607 -2.03063
rclavicle -3.18055e-014 -7.83212e-014
rhumerus 12.0097 -3.29034 -62.8358
rradius 18.1075
rwrist -14.6016
rhand -21.7735 -1.97047
rfingers 7.12502
rthumb 4.62747 -31.8999
lclavicle -3.18055e-014 -7.83212e-014
lhumerus 24.9073 -22.5752 17.5909
lradius 54.0834
lwrist 21.169
lhand -9.42705 -12.5225
lfingers 7.12502
lthumb 16.5353 16.7929
rfemur -67.8183 -10.8334 22.1162
rtibia 127.663
rfoot -28.4639 3.51358
rtoes 1.8946
lfemur -66.3648 22.9787 -22.2925
ltibia 125.411
lfoot -29.4953 -8.95849
ltoes -9.86533
203
root -0.626576 8.51168 24.611 -747.322 -196.94 -724.2
lowerback 78.0776 -12.9471 -6.66842
upperback 19.1553 -2.94718 4.00632
thorax 1.64048 3.13897 8.40509
lowerneck -25.1376 2.94144 -1.92513
upperneck -10.7583 6.35286 -8.98517
head 0.906647 3.98252 -2.10091
rclavicle 6.67916e-014 5.48646e-014
rhumerus 11.9879 -4.07449 -63.2878
rradius 17.575
rwrist -14.2499
rhand -20.9726 -2.78917
rfingers 7.12502
rthumb 5.40084 -32.7003
lclavicle 6.67916e-014 5.48646e-014
lhumerus 24.8875 -22.6085 16.9188
lradius 54.5168
lwrist 21.0444
lhand -9.31093 -12.6538
lfingers 7.12502
lthumb 16.6471 16.6523
rfemur -68.1792 -11.2199 22.2548
rtibia 128.794
rfoot -28.5671 3.47362
rtoes 2.32059
lfemur -66.6783 23.7453 -22.1813
ltibia 126.518
lfoot -29.6239 -9.17828
ltoes -10.153
204
root -0.604824 8.35428 24.6178 -748.073 -196.938 -724.317
lowerback 78.2292 -12.8648 -6.87512
upperback 19.2488 -2.89834 3.91479
thorax 1.77017 3.21063 8.36964
lowerneck -24.8906 2.95105 -1.87314
upperneck -10.7439 6.32516 -9.10583
head 0.880157 3.96139 -2.15688
rclavicle -2.38542e-014 -2.63588e-013
rhumerus 11.9848 -4.82754 -63.7677
rradius 17.0381
rwrist -13.8251
rhand -20.1329 -3.5876
rfingers 7.12502
rthumb 6.21147 -33.4765
lclavicle -2.38542e-014 -2.63588e-013
lhumerus 24.8044 -22.6515 16.2768
lradius 54.9511
lwrist 20.8842
lhand -9.25989 -12.8629
lfingers 7.12502
lthumb 16.6963 16.4391
rfemur -68.519 -11.6148 22.4509
rtibia 129.913
rfoot -28.6619 3.35708
rtoes 2.65056
lfemur -66.9741 24.5949 -22.0037
ltibia 127.602
lfoot -29.7051 -9.49755
ltoes -10.1616
205
root -0.582584 8.20069 24.6243 -748.831 -196.92 -724.489
lowerback 78.3404 -12.7837 -7.09512
upperback 19.3541 -2.86763 3.79041
thorax 1.91161 3.278 8.30855
lowerneck -24.7489 2.9628 -1.77111
upperneck -10.6536 6.29697 -9.21813
head 0.898345 3.93151 -2.21589
rclavicle -1.74931e-014 6.91771e-014
rhumerus 11.9349 -5.36875 -64.2282
rradius 16.5904
rwrist -13.4785
rhand -19.3116 -4.37997
rfingers 7.12502
rthumb 7.00433 -34.2441
lclavicle -1.74931e-014 6.91771e-014
lhumerus 24.7485 -22.6345 15.6443
lradius 55.326
lwrist 20.7126
lhand -9.22466 -13.1413
lfingers 7.12502
lthumb 16.7302 16.1578
rfemur -68.8709 -12.0449 22.6011
rtibia 131
rfoot -28.7416 3.26442
rtoes 2.97057
lfemur -67.2641 25.4561 -21.8842
ltibia 128.645
lfoot -29.7558 -9.79317
ltoes -10.2098
206
root -0.559073 8.05199 24.6317 -749.589 -196.884 -724.627
lowerback 78.4886 -12.7037 -7.31073
upperback 19.4359 -2.83339 3.69322
thorax 2.0303 3.34355 8.27461
lowerneck -24.5858 2.97995 -1.72098
upperneck -10.5517 6.2868 -9.30986
head 0.914769 3.91158 -2.25736
rclavicle 1.59028e-014 -1.35571e-013
rhumerus 11.7759 -5.68774 -64.6334
rradius 16.232
rwrist -13.1504
rhand -18.6337 -5.0391
rfingers 7.12502
rthumb 7.65867 -34.8804
lclavicle 1.59028e-014 -1.35571e-013
lhumerus 24.6194 -22.6211 15.0936
lradius 55.7306
lwrist 20.4712
lhand -9.26427 -13.3993
lfingers 7.12502
lthumb 16.692 15.903
rfemur -69.1639 -12.5218 22.7765
rtibia 132.041
rfoot -28.8051 3.18923
rtoes 3.44268
lfemur -67.5193 26.3303 -21.7129
ltibia 129.638
lfoot -29.7701 -10.1226
ltoes -10.2189
207
root -0.534264 7.90903 24.6385 -750.368 -196.849 -724.762
lowerback 78.6897 -12.6244 -7.51836
upperback 19.4907 -2.79645 3.57793
thorax 2.12369 3.41717 8.21291
lowerneck -24.4534 3.00416 -1.58008
upperneck -10.4151 6.26432 -9.43839
head 0.953053 3.8779 -2.32756
rclavicle 3.18055e-014 1.01778e-013
rhumerus 11.5124 -5.69582 -65.003
rradius 15.9583
rwrist -12.9313
rhand -18.2017 -5.66743
rfingers 7.12502
rthumb 8.07565 -35.4931
lclavicle 3.18055e-014 1.01778e-013
lhumerus 24.5194 -22.5636 14.5476
lradius 56.0644
lwrist 20.1553
lhand -9.29761 -13.6853
lfingers 7.12502
lthumb 16.6599 15.6197
rfemur -69.3851 -13.0299 22.9747
rtibia 133.035
rfoot -28.8967 3.04945
rtoes 3.72129
lfemur -67.6983 27.2503 -21.4971
ltibia 130.578
lfoot -29.7878 -10.4447
ltoes -10.3238
